<?xml version="1.0" encoding="UTF-8" standalone="no"?>
<!-- Created with Inkscape (http://www.inkscape.org/) -->

<svg
   version="1.1"
   id="svg1"
   width="1087.2524"
   height="349.92441"
   viewBox="0 0 1087.2524 349.92441"
   xml:space="preserve"
   xmlns="http://www.w3.org/2000/svg"
   xmlns:svg="http://www.w3.org/2000/svg"><defs
     id="defs1"><clipPath
       clipPathUnits="userSpaceOnUse"
       id="clipPath2"><path
         d="M 0,0 H 811 V 811 H 0 Z"
         id="path2" /></clipPath><clipPath
       clipPathUnits="userSpaceOnUse"
       id="clipPath3"><path
         d="M 0,0 H 811 V 811 H 0 Z"
         id="path3" /></clipPath><clipPath
       clipPathUnits="userSpaceOnUse"
       id="clipPath4"><path
         d="M 0,0 H 811 V 811 H 0 Z"
         id="path4-8" /></clipPath><clipPath
       clipPathUnits="userSpaceOnUse"
       id="clipPath5-4"><path
         d="M 0,0 H 811 V 811 H 0 Z"
         id="path5-0" /></clipPath><clipPath
       clipPathUnits="userSpaceOnUse"
       id="clipPath6-0"><path
         d="M 0,0 H 811 V 811 H 0 Z"
         id="path6-6" /></clipPath><clipPath
       clipPathUnits="userSpaceOnUse"
       id="clipPath12-2"><path
         d="M 0,198.395 H 811 V 619.969 H 0 Z"
         transform="scale(1.3333333)"
         id="path12-4" /></clipPath><clipPath
       clipPathUnits="userSpaceOnUse"
       id="clipPath13-7"><path
         d="M 0,198.395 H 811 V 619.969 H 0 Z"
         transform="translate(-469.16074,-497.60216)"
         id="path13-4" /></clipPath><clipPath
       clipPathUnits="userSpaceOnUse"
       id="clipPath14-1"><path
         d="M 0,0 H 811 V 811 H 0 Z"
         id="path14-8" /></clipPath><clipPath
       clipPathUnits="userSpaceOnUse"
       id="clipPath15-5"><path
         d="M 0,0 H 811 V 811 H 0 Z"
         id="path15-8" /></clipPath><clipPath
       clipPathUnits="userSpaceOnUse"
       id="clipPath16-9"><path
         d="M 0,0 H 811 V 811 H 0 Z"
         id="path16-9" /></clipPath><clipPath
       clipPathUnits="userSpaceOnUse"
       id="clipPath17"><path
         d="M 0,0 H 811 V 811 H 0 Z"
         id="path17" /></clipPath><clipPath
       clipPathUnits="userSpaceOnUse"
       id="clipPath22-9"><path
         d="M 0,185.871 H 811 V 607.449 H 0 Z"
         transform="scale(1.3333333)"
         id="path22-3" /></clipPath></defs><g
     id="g1"
     transform="translate(-2.4414063e-4,-384.37748)"><g
       id="g11"
       clip-path="url(#clipPath12-2)"><path
         d="m 213.34,386.559 c 10.07,0 17.644,-0.75 22.73,-2.254 5.086,-1.504 7.629,-4.383 7.629,-8.641 0,-3.859 -2.445,-6.539 -7.328,-8.043 -4.883,-1.5 -12.234,-2.254 -22.055,-2.254 h -38.398 v 21.192 z m -37.422,65.375 H 155.027 V 344.477 h 59.59 c 17.934,0 30.746,2.332 38.438,6.988 7.687,4.66 11.535,12.726 11.535,24.199 0,11.32 -3.848,19.449 -11.535,24.383 -7.692,4.933 -20.153,7.402 -37.383,7.402 h -39.754 z"
         style="fill:#ffffff;fill-opacity:1;fill-rule:nonzero;stroke:none"
         transform="scale(1.3333333)"
         clip-path="url(#clipPath2)"
         id="path7-7" /><path
         d="M 356.113,452.008 H 274.43 V 344.477 h 20.82 v 0.152 h 60.863 v 20.812 H 295.25 v 18.637 h 51.695 v 20.891 H 295.25 v 26.226 h 60.863 z"
         style="fill:#ffffff;fill-opacity:1;fill-rule:nonzero;stroke:none"
         transform="scale(1.3333333)"
         clip-path="url(#clipPath3)"
         id="path8" /><path
         d="m 421.789,386.633 c 10.922,0 16.379,-3.629 16.379,-10.895 0,-1.804 -0.398,-3.48 -1.199,-5.035 -1.856,-3.555 -6.914,-5.336 -15.18,-5.336 h -32.012 v 21.266 z m 46.84,79.887 h -27.578 l -43.91,-59.071 h -7.364 v 44.559 H 368.891 V 344.555 h 55.828 c 9.769,0 17.933,2.578 24.496,7.738 6.562,5.16 9.844,12.977 9.844,23.445 0,7.114 -1.704,13.028 -5.11,17.735 -3.406,4.707 -7.738,8.215 -13,10.519 -5.258,2.305 -10.668,3.457 -16.23,3.457 z"
         style="fill:#ffffff;fill-opacity:1;fill-rule:nonzero;stroke:none"
         transform="scale(1.3333333)"
         clip-path="url(#clipPath4)"
         id="path9-3" /><path
         d="m 633.617,431.117 c 9.871,0 16.582,-0.898 20.141,-2.703 3.558,-1.805 5.336,-5.109 5.336,-9.922 0,-5.156 -1.703,-8.738 -5.11,-10.742 -3.41,-2.004 -10.195,-3.008 -20.367,-3.008 h -27.426 v 26.375 z m 1.055,-47.262 c 7.914,0 13.226,-0.738 15.93,-2.218 2.703,-1.477 4.058,-3.844 4.058,-7.102 0,-2.105 -0.476,-3.855 -1.43,-5.262 -1.851,-2.601 -7.613,-3.906 -17.281,-3.906 h -29.758 v 18.488 z m -14.578,68.231 -13.903,-0.078 H 585.375 V 344.551 c 12.574,0 21.391,-0.047 26.453,-0.149 3.906,-0.097 7.637,-0.148 11.195,-0.148 8.918,0 17.36,0.426 25.325,1.273 7.964,0.856 14.578,3.785 19.84,8.793 4.855,4.86 7.285,11.223 7.285,19.086 0,4.012 -0.875,7.715 -2.629,11.125 -1.754,3.407 -3.832,6.285 -6.235,8.641 3.453,1.953 6.536,5.098 9.239,9.43 2.707,4.336 4.058,9.632 4.058,15.89 0,9.219 -2.754,16.61 -8.265,22.168 -5.11,4.91 -11.911,8.043 -20.403,9.395 -8.488,1.351 -18.871,2.031 -31.144,2.031"
         style="fill:#ffffff;fill-opacity:1;fill-rule:nonzero;stroke:none"
         transform="scale(1.3333333)"
         clip-path="url(#clipPath5-4)"
         id="path10" /><path
         d="m 745.055,405.043 -11.496,-30.731 -11.571,30.731 z m 39.902,46.965 h -22.316 l -9.77,-26.074 h -38.699 l -9.77,26.074 H 682.16 l 40.203,-107.531 h 22.321 z"
         style="fill:#ffffff;fill-opacity:1;fill-rule:nonzero;stroke:none"
         transform="scale(1.3333333)"
         clip-path="url(#clipPath6-0)"
         id="path11" /></g><text
       id="text12"
       xml:space="preserve"
       transform="matrix(1.3333333,0,0,1.3333333,625.54764,663.46953)"
       clip-path="url(#clipPath13-7)"><tspan
         style="font-variant:normal;font-weight:normal;font-size:70.1684px;font-family:Verdana;writing-mode:lr-tb;fill:#f4ea43;fill-opacity:1;fill-rule:nonzero;stroke:none"
         x="0 38.873009 85.951332 151.8855 198.97177 242.02609 290.07828"
         y="0"
         id="tspan12">company</tspan></text><g
       id="g21"
       clip-path="url(#clipPath22-9)"><path
         d="m 548.52,417.707 c -3.383,4.832 -7.602,8.301 -12.665,10.406 -5.058,2.106 -10.117,3.157 -15.175,3.157 -10.321,0 -18.403,-2.907 -24.235,-8.715 -5.836,-5.813 -8.754,-13.879 -8.754,-24.2 0,-8.113 1.688,-14.578 5.071,-19.386 3.383,-4.809 7.613,-8.266 12.699,-10.367 5.086,-2.106 10.156,-3.161 15.219,-3.161 9.968,0 17.945,2.981 23.929,8.946 5.989,5.961 8.981,13.953 8.981,23.968 0,8.067 -1.692,14.516 -5.07,19.352 m 13.753,-43.934 c -8.711,0 -15.773,-7.062 -15.773,-15.773 0,-2.391 0.547,-4.652 1.5,-6.68 -8.145,-4.511 -17.254,-6.765 -27.32,-6.765 -14.68,0 -27.305,4.734 -37.871,14.199 -10.625,10.371 -15.934,23.57 -15.934,39.601 0,16.083 4.934,29.071 14.805,38.961 9.867,9.895 22.867,14.844 39,14.844 15.828,0 28.754,-5.012 38.773,-15.031 10.02,-10.016 15.027,-22.941 15.027,-38.774 0,-9.667 -1.964,-18.3 -5.871,-25.914 -1.937,0.852 -4.078,1.332 -6.336,1.332"
         style="fill:#ffffff;fill-opacity:1;fill-rule:nonzero;stroke:none"
         transform="scale(1.3333333)"
         clip-path="url(#clipPath14-1)"
         id="path18-2" /><path
         d="m 575.684,357.91 c 0,7.36 -5.965,13.32 -13.321,13.32 -7.355,0 -13.32,-5.96 -13.32,-13.32 0,-7.355 5.965,-13.32 13.32,-13.32 7.356,0 13.321,5.965 13.321,13.32"
         style="fill:#f4ea43;fill-opacity:1;fill-rule:nonzero;stroke:none"
         transform="scale(1.3333333)"
         clip-path="url(#clipPath15-5)"
         id="path19" /><path
         d="M 82.125,358.258 132.801,394.07 17.473,452.473 79.109,391.699 45.555,331.559 Z"
         style="fill:#ffffff;fill-opacity:1;fill-rule:nonzero;stroke:none"
         transform="scale(1.3333333)"
         clip-path="url(#clipPath16-9)"
         id="path20" /><path
         d="M 71.789,390.797 9.262,445.848 55.949,387.742 35.77,332.348 Z"
         style="fill:#f4ea43;fill-opacity:1;fill-rule:nonzero;stroke:none"
         transform="scale(1.3333333)"
         clip-path="url(#clipPath17)"
         id="path21-5" /></g></g></svg>
